<svg width="141" height="43" viewBox="0 0 141 43" fill="none" xmlns="http://www.w3.org/2000/svg">
<path d="M25.6304 17.4361V13.6677L16.5723 7.51367V35.172L25.6304 28.7645V22.4492L22.4958 24.2354V26.9898L19.7069 28.6493V13.8405V13.7829L22.4958 15.4539V19.2224L25.6304 17.4361Z" fill="#C27AC0"/>
<path d="M15.5348 0L0 10.6139V14.6128L15.5348 3.60711L28.3152 12.4002V30.0093L15.5348 38.8023L3.12309 30.0093V19.5683L5.76215 17.7013V17.8051V28.6264L8.88524 30.8967V15.4771L11.628 13.5411V32.8788L14.7626 35.1491V7.51384L0 17.9664V31.8071L15.5348 42.421L31.4037 31.8301L31.4383 31.8071V10.6024L15.5348 0Z" fill="white"/>
<path d="M39.8046 35.8868C38.3756 35.8868 37.2693 35.5296 36.4741 34.8035C35.6789 34.0775 35.2871 33.0749 35.2871 31.7726C35.2871 30.3667 35.725 29.2603 36.6124 28.4536C37.4883 27.6469 38.6753 27.2436 40.1734 27.2436H41.3374V26.1257H42.8586V34.4924H44.8869C44.9445 34.4924 44.9791 34.5154 44.9791 34.5615V35.7946C44.9791 35.8522 44.9445 35.8868 44.8869 35.8868H39.8046ZM41.3374 34.4924V28.6265H40.2195C39.1478 28.6265 38.3295 28.9031 37.7418 29.4447C37.154 29.9979 36.8659 30.7585 36.8659 31.7496C36.8659 32.637 37.1195 33.3169 37.6265 33.7894C38.1336 34.2619 38.8481 34.4924 39.7701 34.4924H41.3374ZM38.8827 24.4778C38.6061 24.4778 38.3641 24.3971 38.1682 24.2242C37.9723 24.0513 37.8801 23.7863 37.8801 23.406C37.8801 23.0257 37.9723 22.7606 38.1682 22.5878C38.3641 22.4149 38.5946 22.3342 38.8827 22.3342C39.1823 22.3342 39.4243 22.4264 39.6087 22.6108C39.7931 22.7952 39.8738 23.0603 39.8738 23.406C39.8738 23.7517 39.7816 24.0168 39.6087 24.2012C39.4359 24.3856 39.1939 24.4778 38.8827 24.4778ZM41.9712 24.4778C41.6601 24.4778 41.418 24.3856 41.2452 24.2012C41.0608 24.0168 40.9801 23.7517 40.9801 23.406C40.9801 23.0603 41.0723 22.7952 41.2452 22.6108C41.418 22.4264 41.6716 22.3342 41.9827 22.3342C42.3054 22.3342 42.5474 22.4264 42.7203 22.6223C42.8932 22.8182 42.9853 23.0718 42.9853 23.406C42.9853 23.7287 42.8932 23.9937 42.7203 24.1896C42.5359 24.374 42.2824 24.4778 41.9712 24.4778Z" fill="#C27AC0"/>
<path d="M44.7133 35.8869C44.6557 35.8869 44.6211 35.8523 44.6211 35.7947V34.5616C44.6211 34.5155 44.6557 34.4924 44.7133 34.4924H47.6059V27.2437H49.1847V34.4924H51.8584C51.916 34.4924 51.9506 34.5155 51.9506 34.5616V35.7947C51.9506 35.8523 51.916 35.8869 51.8584 35.8869H44.7133ZM46.9029 39.4479C46.6263 39.4479 46.3843 39.3672 46.1884 39.1944C45.9925 39.0215 45.9003 38.7564 45.9003 38.3761C45.9003 37.9958 45.9925 37.7308 46.1884 37.5579C46.3843 37.385 46.6148 37.3044 46.9029 37.3044C47.2025 37.3044 47.4445 37.3966 47.6289 37.581C47.8133 37.7653 47.894 38.0304 47.894 38.3761C47.894 38.7219 47.8018 38.9869 47.6289 39.1713C47.4561 39.3557 47.2141 39.4479 46.9029 39.4479ZM49.9914 39.4479C49.6803 39.4479 49.4383 39.3557 49.2654 39.1713C49.081 38.9869 49.0003 38.7219 49.0003 38.3761C49.0003 38.0304 49.0925 37.7653 49.2654 37.581C49.4383 37.3966 49.6918 37.3044 50.0029 37.3044C50.3256 37.3044 50.5676 37.3966 50.7405 37.5925C50.9134 37.7884 51.0056 38.0419 51.0056 38.3761C51.0056 38.6988 50.9134 38.9639 50.7405 39.1598C50.5561 39.3557 50.3026 39.4479 49.9914 39.4479Z" fill="#C27AC0"/>
<path d="M51.6859 35.8868C51.6283 35.8868 51.5938 35.8523 51.5938 35.7946V34.5615C51.5938 34.5154 51.6283 34.4924 51.6859 34.4924H54.0369V27.2436H55.6157V35.8868H51.6859ZM54.8206 25.5495C54.5094 25.5495 54.2674 25.4573 54.0945 25.2729C53.9101 25.0885 53.8295 24.8235 53.8295 24.4778C53.8295 24.132 53.9217 23.867 54.0945 23.6826C54.2674 23.4982 54.5209 23.406 54.8321 23.406C55.1548 23.406 55.3968 23.4982 55.5696 23.6941C55.7425 23.89 55.8347 24.1436 55.8347 24.4778C55.8347 24.8005 55.7425 25.0655 55.5696 25.2614C55.3852 25.4458 55.1317 25.5495 54.8206 25.5495Z" fill="#C27AC0"/>
<path d="M57.9316 34.4923H63.8667C63.6362 32.9019 63.1867 31.5421 62.5298 30.4127C61.873 29.2948 60.9395 28.3152 59.7294 27.497L60.3056 26.1487C61.677 26.8747 62.7949 27.9349 63.6477 29.3409C64.512 30.7469 65.0882 32.464 65.3763 34.4807H67.3585C67.4161 34.4807 67.4507 34.5038 67.4507 34.5499V35.783C67.4507 35.8406 67.4161 35.8752 67.3585 35.8752H57.9316V34.4923Z" fill="#C27AC0"/>
<path d="M75.853 35.8867C75.3575 35.8867 74.8158 35.8175 74.2396 35.6677C73.6634 35.5179 73.0987 35.2989 72.5571 34.9993C71.5083 35.587 70.4135 35.8867 69.238 35.8867H67.1752C67.1176 35.8867 67.083 35.8521 67.083 35.7945V34.5614C67.083 34.5153 67.1176 34.4922 67.1752 34.4922H69.2265C70.0793 34.4922 70.7823 34.377 71.347 34.135C70.886 33.8008 70.4251 33.3283 69.941 32.706C69.457 32.0837 69.0537 31.4152 68.7195 30.6892C68.3852 29.9632 68.1663 29.2833 68.0626 28.6264C68.7079 28.0156 69.4455 27.5431 70.2637 27.1858C71.0819 26.8401 71.9117 26.6672 72.753 26.6672C73.502 26.6672 74.2511 26.7825 75.0117 27.0245C75.7723 27.2665 76.4407 27.5776 77.0054 27.9695C77.0054 29.2026 76.7173 30.355 76.1526 31.4498C75.5879 32.5446 74.8043 33.432 73.8017 34.1119C74.4586 34.3655 75.1155 34.4807 75.7723 34.4807H77.9274C77.985 34.4807 78.0196 34.5038 78.0196 34.5499V35.783C78.0196 35.8406 77.985 35.8751 77.9274 35.8751H75.853V35.8867ZM72.5801 33.3283C73.502 32.706 74.182 32.026 74.6199 31.2885C75.0694 30.5509 75.3229 29.6866 75.3805 28.7186C74.5508 28.2806 73.698 28.0617 72.8106 28.0617C71.7964 28.0617 70.7938 28.4074 69.7797 29.0989C69.9641 29.9056 70.2983 30.6892 70.7938 31.4268C71.2894 32.1643 71.8771 32.8097 72.5801 33.3283Z" fill="#C27AC0"/>
<path d="M77.765 35.8868C77.7074 35.8868 77.6729 35.8522 77.6729 35.7946V34.5615C77.6729 34.5154 77.7074 34.4924 77.765 34.4924H79.9777C79.5398 33.3399 79.3208 32.3258 79.3208 31.45C79.3208 30.3897 79.5398 29.4447 79.9662 28.615C80.4041 28.2462 80.8996 27.9581 81.4643 27.7507C82.029 27.5317 82.6168 27.428 83.2276 27.428C83.9651 27.428 84.622 27.5893 85.1867 27.9235C85.7514 28.2462 86.1778 28.7187 86.4774 29.318C86.777 29.9172 86.9269 30.6087 86.9269 31.3693C86.9269 32.1299 86.8001 32.8329 86.5581 33.4667C86.8116 33.8585 87.0997 34.1236 87.4109 34.2734C87.722 34.4232 88.1484 34.5039 88.6555 34.5039H88.7477C88.8169 34.5039 88.8399 34.527 88.8399 34.573V35.8061C88.8399 35.8638 88.8053 35.8983 88.7477 35.8983H88.6555C88.0217 35.8983 87.48 35.8061 87.0421 35.6333C86.5927 35.4604 86.1663 35.1608 85.7514 34.7344C85.3711 35.1262 84.9332 35.4258 84.4376 35.6102C83.9305 35.7946 83.412 35.8983 82.8703 35.8983H77.765V35.8868ZM80.9227 31.1388C80.9227 31.692 80.9688 32.2336 81.0725 32.7637C81.1762 33.2938 81.3491 33.8701 81.6026 34.4924H82.8588C83.654 34.4924 84.2647 34.2273 84.6911 33.6857C85.1175 33.144 85.325 32.3719 85.325 31.3462C85.325 30.5972 85.1176 29.9864 84.7142 29.5139C84.3109 29.0414 83.8038 28.7994 83.2276 28.7994C82.8473 28.7994 82.4785 28.8685 82.1212 28.9953C81.764 29.1336 81.4298 29.3064 81.1532 29.5254C81.0495 29.7789 80.9918 30.0325 80.9688 30.286C80.9342 30.5395 80.9227 30.8276 80.9227 31.1388Z" fill="#C27AC0"/>
<path d="M88.5639 35.8868C88.5063 35.8868 88.4717 35.8522 88.4717 35.7946V34.5615C88.4717 34.5154 88.5063 34.4923 88.5639 34.4923H90.9148V22.3457H92.4937V35.8868H88.5639Z" fill="#C27AC0"/>
<path d="M96.0664 22.3457H97.6452V35.8868H96.0664V22.3457Z" fill="#C27AC0"/>
<path d="M109.976 35.8868C108.95 35.8868 108.132 35.5757 107.544 34.9649C106.945 34.3426 106.646 33.5013 106.646 32.4411C106.646 32.0492 106.692 31.5883 106.772 31.0697C106.853 30.5511 106.957 30.1132 107.095 29.7559H108.524C108.34 30.6087 108.259 31.4615 108.259 32.3028C108.259 32.9481 108.409 33.4783 108.72 33.8816C109.031 34.285 109.434 34.4924 109.941 34.4924H115.738C115.462 34.1928 115.231 33.7894 115.058 33.3054C114.885 32.8098 114.805 32.3143 114.805 31.8072C114.805 30.4128 115.243 29.3064 116.118 28.4882C116.994 27.67 118.181 27.2551 119.691 27.2551H122.019V35.8984H109.976V35.8868ZM120.486 34.4924V28.6265H119.726C118.665 28.6265 117.847 28.9031 117.259 29.4563C116.672 30.0094 116.372 30.7816 116.372 31.7842C116.372 33.5935 117.19 34.4924 118.815 34.4924H120.486ZM118.631 25.5495C118.32 25.5495 118.078 25.4573 117.905 25.2729C117.72 25.0885 117.64 24.8235 117.64 24.4778C117.64 24.132 117.732 23.867 117.905 23.6826C118.078 23.4982 118.331 23.406 118.642 23.406C118.965 23.406 119.207 23.4982 119.38 23.6941C119.553 23.89 119.645 24.1436 119.645 24.4778C119.645 24.8005 119.553 25.0655 119.38 25.2614C119.207 25.4458 118.953 25.5495 118.631 25.5495Z" fill="#C27AC0"/>
<path d="M127.803 35.8868V36.3132C127.803 37.5118 127.527 38.4568 126.985 39.1367C126.443 39.8166 125.648 40.1624 124.623 40.1624C124.058 40.1624 123.447 39.9895 122.802 39.6553L123.263 38.4683C123.551 38.595 123.793 38.6757 123.977 38.7218C124.162 38.7564 124.369 38.7794 124.588 38.7794C125.118 38.7794 125.545 38.5605 125.844 38.1225C126.144 37.6846 126.294 37.1084 126.294 36.4054V27.2551H127.803V34.5039H130.004C130.074 34.5039 130.097 34.527 130.097 34.5731V35.8062C130.097 35.8638 130.062 35.8984 130.004 35.8984H127.803V35.8868Z" fill="#C27AC0"/>
<path d="M129.832 35.8867C129.775 35.8867 129.74 35.8521 129.74 35.7945V34.5614C129.74 34.5153 129.775 34.4923 129.832 34.4923H137.473C137.035 34.0543 136.666 32.9711 136.355 31.2309C136.182 30.2052 135.929 29.4907 135.595 29.0758C135.26 28.661 134.765 28.4535 134.108 28.4535C133.29 28.4535 132.425 28.6955 131.527 29.168L130.904 27.9465C131.411 27.6123 131.93 27.3818 132.448 27.255C132.967 27.1282 133.52 27.0591 134.119 27.0591C134.846 27.0591 135.456 27.1859 135.94 27.4509C136.424 27.716 136.816 28.0963 137.104 28.6149C137.392 29.1335 137.611 29.8595 137.761 30.816C137.934 31.8763 138.13 32.6945 138.349 33.2707C138.568 33.8469 138.821 34.2618 139.098 34.5153V35.8752H129.832V35.8867Z" fill="#C27AC0"/>
<path d="M49.1276 20.4787C48.9202 20.4787 48.8741 20.3981 48.8625 20.2482V20.2367L47.9867 12.4002L47.5488 12.3656L45.267 20.2598V20.2713C45.267 20.2713 45.2554 20.3174 45.1748 20.4096C45.1171 20.4672 45.0941 20.4787 45.0941 20.4787H42.432C42.432 20.4787 42.3974 20.4787 42.3283 20.4096C42.2591 20.3404 42.2476 20.2943 42.2476 20.2943V20.2713L39.9543 12.3887L39.5163 12.4232L38.629 20.2367V20.2482C38.6174 20.3981 38.5829 20.4787 38.3524 20.4787H35.4828C35.333 20.4787 35.2754 20.4442 35.2754 20.2713L36.7275 6.13097C36.739 6.06182 36.762 6.00421 36.8081 5.94658C36.8312 5.92354 36.8773 5.88896 36.9925 5.88896H40.4959C40.6227 5.88896 40.7149 5.92354 40.761 6.10793L43.7342 16.0188L46.719 6.10793C46.7997 5.90049 46.9149 5.87744 47.0187 5.87744H50.4875C50.5566 5.87744 50.6142 5.90049 50.6719 5.94658C50.7295 5.99268 50.7525 6.0503 50.7641 6.11945C50.9945 8.49346 51.2481 10.879 51.4901 13.1954C51.7321 15.5002 51.9741 17.8742 52.2161 20.2598V20.2943C52.2161 20.3865 52.2161 20.4672 51.9972 20.4672H49.1276V20.4787Z" fill="white"/>
<path d="M62.1505 19.5107C61.6895 19.9371 61.1594 20.2713 60.5832 20.5133C60.0069 20.7553 59.3846 20.8706 58.7393 20.8706C58.0132 20.8706 57.3333 20.7438 56.6879 20.4787C56.0426 20.2137 55.4779 19.8449 54.9939 19.3839C54.5098 18.9114 54.118 18.3698 53.8414 17.7359C53.5533 17.1021 53.415 16.4107 53.415 15.6731C53.415 15.2121 53.4727 14.7627 53.5879 14.3248C53.7031 13.8868 53.8645 13.4835 54.0719 13.1032C54.2794 12.7229 54.5329 12.3771 54.8325 12.0545C55.1322 11.7318 55.4664 11.4667 55.8351 11.2362C56.2039 11.0058 56.6073 10.8329 57.0337 10.7061C57.4716 10.5793 57.921 10.5217 58.4051 10.5217C58.843 10.5217 59.2694 10.5794 59.6843 10.6946C60.0991 10.8098 60.4794 10.9712 60.8482 11.1901C61.2055 11.3976 61.5397 11.6511 61.8393 11.9507C62.1389 12.2504 62.404 12.5731 62.6114 12.9188C62.8304 13.2645 62.9917 13.6448 63.1185 14.0482C63.2338 14.4515 63.2914 14.8549 63.2914 15.2813C63.2914 15.5578 63.2914 15.7768 63.2799 15.9497C63.2683 16.1225 63.2338 16.2608 63.1531 16.3646C63.0839 16.4683 62.9572 16.5374 62.7843 16.5835C62.6114 16.6181 62.3579 16.6411 62.0237 16.6411H56.3192C56.3768 16.9753 56.4805 17.2634 56.6418 17.4939C56.8032 17.7244 56.9876 17.8973 57.195 18.0356C57.4024 18.1739 57.6329 18.2661 57.8634 18.3237C58.1054 18.3813 58.3244 18.4159 58.5318 18.4159C58.7162 18.4159 58.9121 18.3928 59.1196 18.3583C59.3155 18.3237 59.5114 18.2661 59.7073 18.1969C59.8917 18.1278 60.0646 18.0586 60.2259 17.9664C60.3873 17.8742 60.5025 17.7936 60.6062 17.6898C60.6869 17.6207 60.7675 17.5746 60.8252 17.54C60.8828 17.5055 60.9519 17.4939 61.0211 17.4939C61.0902 17.4939 61.1594 17.517 61.2285 17.5631C61.2977 17.6092 61.3783 17.6783 61.4705 17.7705L62.3118 18.7155C62.3694 18.7847 62.404 18.8423 62.4271 18.8999C62.4386 18.9575 62.4501 19.0151 62.4501 19.0728C62.4501 19.1765 62.4155 19.2687 62.3579 19.3493C62.3003 19.3839 62.2311 19.4531 62.1505 19.5107ZM58.3474 12.9073C58.14 12.9073 57.9441 12.9534 57.7482 13.034C57.5523 13.1147 57.3794 13.2299 57.2065 13.3682C57.0337 13.5065 56.8839 13.6563 56.7456 13.8407C56.6073 14.0136 56.5036 14.1865 56.4114 14.3708H60.4679C60.3527 14.1634 60.2374 13.979 60.1107 13.8062C59.9839 13.6333 59.8341 13.4835 59.6727 13.3452C59.5114 13.2184 59.3155 13.1147 59.1081 13.034C58.8776 12.9418 58.624 12.9073 58.3474 12.9073Z" fill="white"/>
<path d="M65.5501 9.08125C65.5501 8.91991 65.6077 8.79314 65.7114 8.71247C65.8151 8.6318 65.9765 8.55113 66.1724 8.48198L67.9702 7.85967C67.9932 7.85967 68.0163 7.84814 68.0509 7.84814C68.0854 7.84814 68.097 7.84814 68.12 7.84814C68.3159 7.84814 68.4427 7.90577 68.5118 8.02101C68.581 8.13625 68.6156 8.28607 68.6156 8.47046L68.604 10.9597H69.9178C70.0907 10.9597 70.229 11.0058 70.3327 11.1095C70.4364 11.2132 70.494 11.3631 70.494 11.559V13.0917C70.494 13.3107 70.4364 13.472 70.3327 13.5757C70.229 13.6794 70.0907 13.7255 69.9178 13.7255H68.5925L68.604 20.087C68.604 20.2829 68.5464 20.4442 68.4312 20.5479C68.3159 20.6517 68.1546 20.6977 67.9471 20.6977H66.1609C65.7575 20.6977 65.5501 20.4903 65.5501 20.087L65.5386 13.7255H64.9623C64.559 13.7255 64.3516 13.5066 64.3516 13.0802V11.5474C64.3516 11.1441 64.559 10.9482 64.9623 10.9482H65.5386L65.5501 9.08125Z" fill="white"/>
<path d="M81.8449 20.1214C81.8449 20.2136 81.8334 20.2943 81.7988 20.375C81.7643 20.4556 81.7182 20.5248 81.6375 20.5709C81.5799 20.6285 81.5107 20.6631 81.4301 20.6861C81.3494 20.6977 81.2802 20.7092 81.2226 20.7092H79.6668C79.5516 20.7092 79.4709 20.6976 79.4018 20.6631C79.3327 20.6285 79.275 20.5939 79.2405 20.5363C79.1944 20.4787 79.1598 20.4211 79.1367 20.3404C79.1022 20.2597 79.0791 20.1791 79.0445 20.0869L78.814 19.4876C78.6758 19.6259 78.5144 19.7872 78.3416 19.9486C78.1687 20.1099 77.9843 20.2597 77.7884 20.398C77.581 20.5363 77.362 20.6516 77.1315 20.7437C76.8895 20.8359 76.636 20.882 76.3709 20.882C75.8869 20.882 75.4259 20.8244 74.988 20.6976C74.5501 20.5709 74.1352 20.398 73.7549 20.1791C73.3746 19.9601 73.0288 19.6835 72.7177 19.3724C72.4065 19.0612 72.1415 18.7039 71.911 18.3236C71.692 17.9433 71.5192 17.5169 71.3924 17.079C71.2656 16.6296 71.208 16.1686 71.208 15.6846C71.208 14.947 71.3463 14.2671 71.6114 13.6332C71.8764 12.9994 72.2452 12.4578 72.7177 11.9853C73.1787 11.5128 73.7318 11.1555 74.3541 10.8789C74.988 10.6139 75.6564 10.4756 76.3709 10.4756C76.6936 10.4756 77.0047 10.5217 77.2698 10.6254C77.5464 10.7176 77.7884 10.8559 78.0189 11.0057C78.2378 11.167 78.4453 11.3399 78.6297 11.5473C78.814 11.7433 78.9754 11.9507 79.1137 12.1581L79.4248 11.2016C79.4825 11.0748 79.517 10.9596 79.5516 10.8789C79.5862 10.7983 79.6207 10.7406 79.6668 10.6946C79.7014 10.66 79.759 10.6254 79.8167 10.6139C79.8743 10.6024 79.955 10.5908 80.0587 10.5908H81.2341C81.2918 10.5908 81.3609 10.6024 81.4416 10.6139C81.5223 10.6254 81.5914 10.6715 81.649 10.7291C81.7182 10.7867 81.7758 10.8559 81.8104 10.925C81.8449 10.9942 81.8565 11.0864 81.8565 11.1786V20.1214H81.8449ZM74.043 15.6846C74.043 16.0303 74.1006 16.3645 74.2043 16.6641C74.308 16.9638 74.4694 17.2288 74.6653 17.4478C74.8612 17.6668 75.1032 17.8396 75.3913 17.9779C75.6794 18.1047 75.9906 18.1738 76.3248 18.1738C76.6821 18.1738 77.0047 18.1047 77.3159 17.9779C77.6155 17.8511 77.8806 17.6783 78.1111 17.4478C78.33 17.2288 78.5144 16.9638 78.6412 16.6641C78.7679 16.3645 78.8256 16.0303 78.8256 15.6846C78.8256 15.3504 78.7679 15.0277 78.6412 14.7165C78.5144 14.4054 78.3416 14.1403 78.1111 13.9098C77.8921 13.6793 77.627 13.495 77.3159 13.3567C77.0163 13.2184 76.6821 13.1492 76.3248 13.1492C75.9791 13.1492 75.6679 13.2184 75.3913 13.3567C75.1032 13.495 74.8727 13.6793 74.6653 13.9098C74.4694 14.1403 74.308 14.4169 74.2043 14.7165C74.1006 15.0277 74.043 15.3504 74.043 15.6846Z" fill="white"/>
<path d="M83.7469 8.27456C83.7469 8.10169 83.793 7.9634 83.8736 7.84816C83.9543 7.73291 84.1041 7.67529 84.3116 7.67529H86.2476C86.3053 7.67529 86.3514 7.68682 86.409 7.72139C86.4666 7.75597 86.5242 7.79054 86.5703 7.84816C86.6164 7.90578 86.6625 7.9634 86.6971 8.03254C86.7317 8.10169 86.7432 8.19389 86.7432 8.27456V20.11C86.7432 20.3059 86.6856 20.4673 86.5703 20.571C86.4551 20.6747 86.3053 20.7208 86.1324 20.7208H84.3C84.0926 20.7208 83.9543 20.6747 83.8621 20.571C83.7814 20.4673 83.7354 20.3175 83.7354 20.11V8.27456H83.7469Z" fill="white"/>
<path d="M101.794 20.6516C101.114 20.6516 100.457 20.5594 99.8235 20.3865C99.2011 20.2137 98.6019 19.9601 98.0602 19.6375C97.5186 19.3148 97.0115 18.923 96.5621 18.485C96.1126 18.0356 95.7323 17.54 95.4096 16.9984C95.087 16.4568 94.8449 15.869 94.6606 15.2467C94.4877 14.6244 94.3955 13.956 94.3955 13.276C94.3955 12.5961 94.4877 11.9392 94.6606 11.3054C94.8334 10.6831 95.087 10.0838 95.4096 9.54217C95.7323 8.989 96.1241 8.49346 96.5621 8.04401C97.0115 7.59456 97.5071 7.20274 98.0487 6.89158C98.5904 6.5689 99.1896 6.32689 99.8119 6.1425C100.434 5.96963 101.103 5.87744 101.771 5.87744C102.543 5.87744 103.281 5.98116 103.961 6.20012C104.641 6.41908 105.297 6.73024 105.897 7.13359L105.908 7.14512C105.989 7.19121 106.035 7.24883 106.07 7.30645C106.093 7.34102 106.081 7.39865 106.047 7.46779L104.376 9.8418C104.329 9.92247 104.295 9.94552 104.283 9.94552C104.272 9.94552 104.226 9.94552 104.157 9.89942C103.811 9.64589 103.442 9.44997 103.027 9.30016C102.612 9.16186 102.174 9.09272 101.713 9.09272C101.137 9.09272 100.607 9.20796 100.123 9.4154C99.6391 9.63436 99.2127 9.934 98.8669 10.3143C98.5212 10.6946 98.2446 11.1325 98.0487 11.6396C97.8528 12.1467 97.7491 12.6883 97.7491 13.253C97.7491 13.8177 97.8528 14.3593 98.0487 14.8664C98.2446 15.3619 98.5212 15.8114 98.8669 16.1802C99.2127 16.5605 99.6391 16.8601 100.123 17.0675C100.607 17.2865 101.149 17.3902 101.713 17.3902C102.174 17.3902 102.624 17.3211 103.039 17.1713C103.454 17.033 103.834 16.8255 104.18 16.572C104.272 16.5259 104.306 16.5144 104.318 16.5144C104.318 16.5144 104.353 16.5259 104.41 16.6066L106.093 19.0382C106.116 19.0728 106.139 19.1534 106.116 19.188C106.081 19.2456 106.024 19.3033 105.954 19.3494L105.943 19.3609C105.344 19.7642 104.675 20.0869 103.984 20.3059C103.304 20.5364 102.555 20.6516 101.794 20.6516Z" fill="white"/>
<path d="M107.971 11.2362C107.971 11.144 107.994 11.0633 108.029 10.9827C108.063 10.902 108.121 10.8328 108.179 10.7867C108.317 10.6945 108.455 10.6485 108.605 10.6485H109.804C109.907 10.6485 109.988 10.6715 110.046 10.7061C110.103 10.7406 110.149 10.7867 110.195 10.8444C110.23 10.902 110.265 10.9711 110.299 11.0403C110.334 11.1094 110.368 11.1901 110.403 11.2592C110.414 11.2823 110.437 11.3284 110.461 11.4091C110.495 11.4897 110.53 11.5819 110.564 11.6741C110.599 11.7663 110.633 11.8585 110.668 11.9507C110.703 12.0429 110.726 12.089 110.737 12.1236C110.898 11.9507 111.048 11.7663 111.198 11.5704C111.348 11.3745 111.498 11.2016 111.659 11.0403C111.82 10.8789 112.005 10.7406 112.201 10.6369C112.397 10.5332 112.639 10.4756 112.915 10.4756C113.203 10.4756 113.457 10.4986 113.676 10.5332C113.895 10.5793 114.114 10.6369 114.31 10.7176C114.506 10.7983 114.713 10.902 114.909 11.0288C115.105 11.1555 115.324 11.3053 115.554 11.4667C115.923 11.6626 115.992 11.9507 115.762 12.3425L115.036 13.5756C114.932 13.737 114.805 13.8292 114.644 13.8637C114.494 13.8983 114.321 13.8753 114.148 13.7946C113.918 13.5756 113.687 13.4028 113.457 13.299C113.226 13.1953 112.95 13.1377 112.65 13.1377C112.443 13.1377 112.258 13.1723 112.109 13.2299C111.947 13.2875 111.809 13.3682 111.682 13.4719C111.555 13.5756 111.44 13.7024 111.325 13.8522C111.21 14.002 111.106 14.1634 110.991 14.3478V20.0753C110.991 20.2712 110.945 20.4326 110.841 20.5363C110.749 20.64 110.576 20.6861 110.357 20.6861H108.571C108.156 20.6861 107.948 20.4787 107.948 20.0753V11.2362H107.971Z" fill="white"/>
<path d="M126.675 20.1214C126.675 20.2136 126.664 20.2943 126.629 20.375C126.594 20.4556 126.548 20.5248 126.468 20.5709C126.41 20.6285 126.341 20.6631 126.26 20.6861C126.179 20.6977 126.11 20.7092 126.053 20.7092H124.497C124.382 20.7092 124.301 20.6976 124.232 20.6631C124.163 20.6285 124.105 20.5939 124.071 20.5363C124.024 20.4787 123.99 20.4211 123.967 20.3404C123.932 20.2597 123.909 20.1791 123.875 20.0869L123.644 19.4876C123.506 19.6259 123.345 19.7872 123.172 19.9486C122.999 20.1099 122.814 20.2597 122.618 20.398C122.411 20.5363 122.192 20.6516 121.962 20.7437C121.72 20.8359 121.466 20.882 121.201 20.882C120.717 20.882 120.256 20.8244 119.818 20.6976C119.38 20.5709 118.965 20.398 118.585 20.1791C118.205 19.9601 117.859 19.6835 117.548 19.3724C117.237 19.0612 116.972 18.7039 116.741 18.3236C116.522 17.9433 116.349 17.5169 116.222 17.079C116.096 16.6296 116.038 16.1686 116.038 15.6846C116.038 14.947 116.176 14.2671 116.441 13.6332C116.706 12.9994 117.075 12.4578 117.548 11.9853C118.009 11.5128 118.562 11.1555 119.184 10.8789C119.818 10.6139 120.486 10.4756 121.201 10.4756C121.524 10.4756 121.835 10.5217 122.1 10.6254C122.376 10.7176 122.618 10.8559 122.849 11.0057C123.068 11.167 123.275 11.3399 123.46 11.5473C123.644 11.7433 123.805 11.9507 123.944 12.1581L124.255 11.2016C124.313 11.0748 124.347 10.9596 124.382 10.8789C124.416 10.7983 124.451 10.7406 124.497 10.6946C124.532 10.66 124.589 10.6254 124.647 10.6139C124.704 10.6024 124.785 10.5908 124.889 10.5908H126.064C126.122 10.5908 126.191 10.6024 126.272 10.6139C126.352 10.6254 126.422 10.6715 126.479 10.7291C126.548 10.7867 126.606 10.8559 126.64 10.925C126.675 10.9942 126.687 11.0864 126.687 11.1786V20.1214H126.675ZM118.873 15.6846C118.873 16.0303 118.931 16.3645 119.034 16.6641C119.138 16.9638 119.299 17.2288 119.495 17.4478C119.691 17.6668 119.933 17.8396 120.221 17.9779C120.51 18.1047 120.821 18.1738 121.155 18.1738C121.512 18.1738 121.835 18.1047 122.146 17.9779C122.446 17.8511 122.711 17.6783 122.941 17.4478C123.16 17.2288 123.344 16.9638 123.471 16.6641C123.598 16.3645 123.656 16.0303 123.656 15.6846C123.656 15.3504 123.598 15.0277 123.471 14.7165C123.344 14.4054 123.172 14.1403 122.941 13.9098C122.722 13.6793 122.457 13.495 122.146 13.3567C121.846 13.2184 121.512 13.1492 121.155 13.1492C120.809 13.1492 120.498 13.2184 120.221 13.3567C119.933 13.495 119.703 13.6793 119.495 13.9098C119.299 14.1403 119.138 14.4169 119.034 14.7165C118.919 15.0277 118.873 15.3504 118.873 15.6846Z" fill="white"/>
<path d="M129.533 10.7984C129.533 10.3028 129.636 9.84185 129.844 9.41545C130.051 8.97752 130.339 8.60875 130.697 8.27455C131.054 7.95187 131.457 7.69833 131.918 7.50242C132.379 7.31803 132.863 7.22583 133.359 7.22583H133.52C133.705 7.22583 133.843 7.28345 133.935 7.38717C134.027 7.49089 134.085 7.64071 134.085 7.83662V9.34631C134.085 9.54222 134.039 9.70356 133.935 9.83033C133.831 9.9571 133.693 10.0262 133.532 10.0262H133.37C133.255 10.0262 133.151 10.0493 133.059 10.0839C132.955 10.1184 132.875 10.1761 132.794 10.2452C132.713 10.3143 132.656 10.395 132.61 10.4872C132.564 10.5794 132.541 10.6831 132.541 10.7868V11.6973H133.785C133.97 11.6973 134.108 11.7434 134.2 11.8471C134.292 11.9393 134.35 12.1006 134.35 12.3081V13.7601C134.35 13.9906 134.304 14.1519 134.2 14.2557C134.108 14.3594 133.958 14.417 133.785 14.417H132.541V20.0985C132.541 20.2944 132.471 20.4557 132.333 20.5595C132.195 20.6632 132.057 20.7093 131.895 20.7093H130.19C130.005 20.7093 129.844 20.6516 129.729 20.5364C129.613 20.4212 129.556 20.2714 129.556 20.11V14.417H128.738C128.553 14.417 128.403 14.3594 128.288 14.2557C128.173 14.1519 128.115 13.9791 128.115 13.7601V12.3081C128.115 12.1006 128.173 11.9393 128.288 11.8471C128.403 11.7549 128.553 11.6973 128.738 11.6973H129.556V10.7984H129.533Z" fill="white"/>
<path d="M136.044 9.08125C136.044 8.91991 136.102 8.79314 136.206 8.71247C136.309 8.6318 136.471 8.55113 136.667 8.48198L138.465 7.85967C138.488 7.85967 138.511 7.84814 138.545 7.84814C138.568 7.84814 138.591 7.84814 138.614 7.84814C138.81 7.84814 138.937 7.90577 139.006 8.02101C139.075 8.13625 139.11 8.28607 139.11 8.47046L139.098 10.9597H140.424C140.597 10.9597 140.735 11.0058 140.839 11.1095C140.942 11.2132 141 11.3631 141 11.559V13.0917C141 13.3107 140.942 13.472 140.839 13.5757C140.735 13.6794 140.597 13.7255 140.424 13.7255H139.098L139.11 20.087C139.11 20.2829 139.052 20.4442 138.937 20.5479C138.822 20.6517 138.66 20.6977 138.453 20.6977H136.667C136.263 20.6977 136.056 20.4903 136.056 20.087L136.044 13.7255H135.468C135.065 13.7255 134.857 13.5066 134.857 13.0802V11.5474C134.857 11.1441 135.065 10.9482 135.468 10.9482H136.044V9.08125Z" fill="white"/>
</svg>
