<svg width="167" height="50" viewBox="0 0 167 50" fill="none" xmlns="http://www.w3.org/2000/svg">
<path d="M30.2087 20.5516V16.1099L19.5322 8.85645V41.4563L30.2087 33.904V26.4604L26.514 28.5658V31.8122L23.2269 33.7682V16.3137V16.2457L26.514 18.2153V22.657L30.2087 20.5516Z" fill="#C27AC0"/>
<path d="M18.3102 0L0 12.5102V17.2236L18.3102 4.25156L33.3741 14.6156V35.3708L18.3102 45.7349L3.68107 35.3708V23.0644L6.79163 20.8639V20.9861V33.7408L10.4727 36.4167V18.2423L13.7055 15.9603V38.7531L17.4002 41.429V8.85628L0 21.1763V37.4898L18.3102 50L37.0144 37.517L37.0551 37.4898V12.4966L18.3102 0Z" fill="#451E5D"/>
<path d="M46.9164 42.2979C45.2321 42.2979 43.9281 41.8768 42.9909 41.0211C42.0536 40.1653 41.5918 38.9836 41.5918 37.4487C41.5918 35.7915 42.108 34.4875 43.1539 33.5367C44.1862 32.5859 45.5853 32.1105 47.3511 32.1105H48.723V30.7929H50.516V40.6543H52.9067C52.9746 40.6543 53.0153 40.6815 53.0153 40.7358V42.1892C53.0153 42.2571 52.9746 42.2979 52.9067 42.2979H46.9164ZM48.723 40.6543V33.7404H47.4054C46.1422 33.7404 45.1778 34.0664 44.485 34.7049C43.7923 35.3568 43.4527 36.2533 43.4527 37.4215C43.4527 38.4674 43.7515 39.2688 44.3492 39.8257C44.9469 40.3827 45.789 40.6543 46.8757 40.6543H48.723ZM45.8298 28.8505C45.5038 28.8505 45.2185 28.7554 44.9876 28.5516C44.7567 28.3479 44.648 28.0355 44.648 27.5872C44.648 27.139 44.7567 26.8266 44.9876 26.6228C45.2185 26.4191 45.4902 26.324 45.8298 26.324C46.1829 26.324 46.4682 26.4326 46.6855 26.65C46.9029 26.8673 46.9979 27.1797 46.9979 27.5872C46.9979 27.9947 46.8893 28.3071 46.6855 28.5245C46.4818 28.7418 46.1965 28.8505 45.8298 28.8505ZM49.4701 28.8505C49.1033 28.8505 48.8181 28.7418 48.6143 28.5245C48.397 28.3071 48.3019 27.9947 48.3019 27.5872C48.3019 27.1797 48.4106 26.8673 48.6143 26.65C48.8181 26.4326 49.1169 26.324 49.4837 26.324C49.864 26.324 50.1493 26.4326 50.353 26.6636C50.5568 26.8945 50.6654 27.1933 50.6654 27.5872C50.6654 27.9675 50.5568 28.28 50.353 28.5109C50.1357 28.7282 49.8368 28.8505 49.4701 28.8505Z" fill="#C27AC0"/>
<path d="M52.7034 42.298C52.6355 42.298 52.5947 42.2573 52.5947 42.1894V40.736C52.5947 40.6816 52.6355 40.6545 52.7034 40.6545H56.1128V32.1106H57.9737V40.6545H61.125C61.1929 40.6545 61.2337 40.6816 61.2337 40.736V42.1894C61.2337 42.2573 61.1929 42.298 61.125 42.298H52.7034ZM55.2842 46.4953C54.9582 46.4953 54.673 46.4002 54.442 46.1964C54.2111 45.9927 54.1025 45.6803 54.1025 45.232C54.1025 44.7838 54.2111 44.4714 54.442 44.2676C54.673 44.0639 54.9446 43.9688 55.2842 43.9688C55.6374 43.9688 55.9226 44.0774 56.14 44.2948C56.3573 44.5121 56.4524 44.8245 56.4524 45.232C56.4524 45.6395 56.3437 45.9519 56.14 46.1693C55.9362 46.3866 55.651 46.4953 55.2842 46.4953ZM58.9245 46.4953C58.5578 46.4953 58.2725 46.3866 58.0688 46.1693C57.8514 45.9519 57.7564 45.6395 57.7564 45.232C57.7564 44.8245 57.865 44.5121 58.0688 44.2948C58.2725 44.0774 58.5714 43.9688 58.9381 43.9688C59.3184 43.9688 59.6037 44.0774 59.8074 44.3084C60.0112 44.5393 60.1199 44.8381 60.1199 45.232C60.1199 45.6124 60.0112 45.9248 59.8074 46.1557C59.5901 46.3866 59.2913 46.4953 58.9245 46.4953Z" fill="#C27AC0"/>
<path d="M60.9212 42.2981C60.8532 42.2981 60.8125 42.2573 60.8125 42.1894V40.736C60.8125 40.6817 60.8532 40.6545 60.9212 40.6545H63.6922V32.1106H65.5531V42.2981H60.9212ZM64.6158 30.1139C64.2491 30.1139 63.9638 30.0052 63.7601 29.7879C63.5427 29.5706 63.4477 29.2582 63.4477 28.8507C63.4477 28.4432 63.5563 28.1307 63.7601 27.9134C63.9638 27.6961 64.2626 27.5874 64.6294 27.5874C65.0097 27.5874 65.295 27.6961 65.4987 27.927C65.7025 28.1579 65.8111 28.4567 65.8111 28.8507C65.8111 29.231 65.7025 29.5434 65.4987 29.7743C65.2814 29.9916 64.9826 30.1139 64.6158 30.1139Z" fill="#C27AC0"/>
<path d="M68.2832 40.6543H75.2786C75.0069 38.7798 74.4772 37.177 73.7029 35.8459C72.9287 34.5283 71.8284 33.3737 70.4022 32.4093L71.0814 30.8201C72.6978 31.6758 74.0153 32.9255 75.0205 34.5826C76.0392 36.2398 76.7184 38.2637 77.058 40.6408H79.3943C79.4622 40.6408 79.503 40.6679 79.503 40.7223V42.1757C79.503 42.2436 79.4622 42.2843 79.3943 42.2843H68.2832V40.6543Z" fill="#C27AC0"/>
<path d="M89.4052 42.298C88.8211 42.298 88.1827 42.2165 87.5036 42.0399C86.8244 41.8633 86.1588 41.6053 85.5204 41.2521C84.2843 41.9448 82.9939 42.298 81.6084 42.298H79.177C79.1091 42.298 79.0684 42.2573 79.0684 42.1893V40.7359C79.0684 40.6816 79.1091 40.6544 79.177 40.6544H81.5948C82.6 40.6544 83.4286 40.5186 84.0942 40.2333C83.5508 39.8394 83.0075 39.2825 82.437 38.549C81.8665 37.8155 81.3911 37.0277 80.9972 36.1719C80.6033 35.3162 80.3452 34.5148 80.2229 33.7406C80.9836 33.0206 81.8529 32.4637 82.8173 32.0426C83.7817 31.6351 84.7597 31.4314 85.7513 31.4314C86.6342 31.4314 87.5171 31.5672 88.4136 31.8525C89.3101 32.1377 90.098 32.5045 90.7635 32.9663C90.7635 34.4197 90.424 35.778 89.7584 37.0685C89.0928 38.3589 88.1691 39.4048 86.9874 40.2062C87.7616 40.505 88.5359 40.6408 89.3101 40.6408H91.8502C91.9181 40.6408 91.9589 40.668 91.9589 40.7223V42.1758C91.9589 42.2437 91.9181 42.2844 91.8502 42.2844H89.4052V42.298ZM85.5476 39.2825C86.6342 38.549 87.4357 37.7476 87.9518 36.8783C88.4816 36.009 88.7804 34.9902 88.8483 33.8492C87.8703 33.333 86.8651 33.075 85.8192 33.075C84.6239 33.075 83.4422 33.4825 82.2468 34.2975C82.4642 35.2483 82.8581 36.1719 83.4422 37.0413C84.0262 37.9106 84.719 38.6713 85.5476 39.2825Z" fill="#C27AC0"/>
<path d="M91.6594 42.298C91.5915 42.298 91.5508 42.2572 91.5508 42.1893V40.7359C91.5508 40.6816 91.5915 40.6544 91.6594 40.6544H94.2674C93.7513 39.2961 93.4932 38.1008 93.4932 37.0684C93.4932 35.8188 93.7513 34.7049 94.2538 33.7269C94.77 33.2923 95.3541 32.9527 96.0197 32.7082C96.6852 32.4501 97.378 32.3279 98.0979 32.3279C98.9672 32.3279 99.7415 32.518 100.407 32.912C101.073 33.2923 101.575 33.8492 101.928 34.5555C102.282 35.2619 102.458 36.0769 102.458 36.9734C102.458 37.8698 102.309 38.6984 102.023 39.4455C102.322 39.9073 102.662 40.2198 103.029 40.3963C103.395 40.5729 103.898 40.668 104.496 40.668H104.604C104.686 40.668 104.713 40.6952 104.713 40.7495V42.2029C104.713 42.2708 104.672 42.3116 104.604 42.3116H104.496C103.749 42.3116 103.11 42.2029 102.594 41.9992C102.064 41.7954 101.562 41.4423 101.073 40.9397C100.624 41.4015 100.108 41.7547 99.5242 41.972C98.9265 42.1893 98.3152 42.3116 97.6768 42.3116H91.6594V42.298ZM95.3813 36.7017C95.3813 37.3537 95.4356 37.9921 95.5578 38.6169C95.6801 39.2418 95.8838 39.9209 96.1827 40.6544H97.6633C98.6005 40.6544 99.3204 40.342 99.823 39.7036C100.326 39.0652 100.57 38.1551 100.57 36.9462C100.57 36.0633 100.326 35.3434 99.8502 34.7864C99.3747 34.2295 98.7771 33.9443 98.0979 33.9443C97.6497 33.9443 97.215 34.0258 96.7939 34.1752C96.3728 34.3382 95.9789 34.5419 95.6529 34.8C95.5307 35.0989 95.4628 35.3977 95.4356 35.6965C95.3948 35.9954 95.3813 36.3349 95.3813 36.7017Z" fill="#C27AC0"/>
<path d="M104.387 42.298C104.319 42.298 104.278 42.2572 104.278 42.1893V40.7359C104.278 40.6816 104.319 40.6544 104.387 40.6544H107.158V26.3376H109.019V42.298H104.387Z" fill="#C27AC0"/>
<path d="M113.23 26.3376H115.091V42.298H113.23V26.3376Z" fill="#C27AC0"/>
<path d="M129.625 42.2981C128.416 42.2981 127.451 41.9313 126.759 41.2114C126.052 40.4779 125.699 39.4863 125.699 38.2367C125.699 37.7749 125.754 37.2315 125.849 36.6203C125.944 36.009 126.066 35.4929 126.229 35.0718H127.913C127.696 36.0769 127.601 37.0821 127.601 38.0737C127.601 38.8343 127.777 39.4592 128.144 39.9346C128.511 40.41 128.986 40.6545 129.584 40.6545H136.416C136.09 40.3013 135.819 39.8259 135.615 39.2554C135.411 38.6714 135.316 38.0873 135.316 37.4896C135.316 35.846 135.832 34.542 136.865 33.5776C137.897 32.6132 139.296 32.1242 141.075 32.1242H143.819V42.3117H129.625V42.2981ZM142.013 40.6545V33.7406H141.116C139.867 33.7406 138.902 34.0666 138.209 34.7186C137.517 35.3706 137.163 36.2807 137.163 37.4624C137.163 39.595 138.128 40.6545 140.043 40.6545H142.013ZM139.826 30.1139C139.459 30.1139 139.174 30.0052 138.97 29.7879C138.753 29.5706 138.658 29.2582 138.658 28.8507C138.658 28.4432 138.766 28.1307 138.97 27.9134C139.174 27.6961 139.473 27.5874 139.839 27.5874C140.22 27.5874 140.505 27.6961 140.709 27.927C140.912 28.1579 141.021 28.4567 141.021 28.8507C141.021 29.231 140.912 29.5434 140.709 29.7743C140.505 29.9916 140.206 30.1139 139.826 30.1139Z" fill="#C27AC0"/>
<path d="M150.638 42.2981V42.8007C150.638 44.2134 150.312 45.3272 149.674 46.1286C149.035 46.93 148.098 47.3375 146.889 47.3375C146.224 47.3375 145.504 47.1338 144.743 46.7399L145.286 45.3408C145.626 45.4902 145.911 45.5853 146.129 45.6396C146.346 45.6804 146.59 45.7075 146.849 45.7075C147.473 45.7075 147.976 45.4494 148.329 44.9333C148.682 44.4171 148.859 43.738 148.859 42.9094V32.1243H150.638V40.6681H153.233C153.314 40.6681 153.341 40.6953 153.341 40.7496V42.203C153.341 42.271 153.301 42.3117 153.233 42.3117H150.638V42.2981Z" fill="#C27AC0"/>
<path d="M153.03 42.2981C152.962 42.2981 152.921 42.2573 152.921 42.1894V40.736C152.921 40.6817 152.962 40.6545 153.03 40.6545H162.035C161.519 40.1384 161.084 38.8615 160.718 36.8105C160.514 35.6016 160.215 34.7594 159.821 34.2704C159.427 33.7814 158.843 33.5369 158.069 33.5369C157.105 33.5369 156.086 33.8221 155.026 34.3791L154.293 32.9392C154.89 32.5453 155.502 32.2737 156.113 32.1242C156.724 31.9748 157.376 31.8933 158.083 31.8933C158.938 31.8933 159.658 32.0427 160.229 32.3551C160.799 32.6676 161.261 33.1158 161.601 33.7271C161.94 34.3383 162.198 35.1941 162.375 36.3215C162.579 37.5711 162.81 38.5355 163.068 39.2147C163.326 39.8939 163.625 40.3829 163.951 40.6817V42.2845H153.03V42.2981Z" fill="#C27AC0"/>
<path d="M57.9062 24.137C57.6617 24.137 57.6074 24.0419 57.5938 23.8653V23.8517L56.5614 14.6151L56.0453 14.5744L53.3558 23.8789V23.8925C53.3558 23.8925 53.3422 23.9468 53.2471 24.0555C53.1792 24.1234 53.152 24.137 53.152 24.137H50.0143C50.0143 24.137 49.9736 24.137 49.8921 24.0555C49.8106 23.974 49.797 23.9197 49.797 23.9197V23.8925L47.0939 14.6015L46.5777 14.6423L45.5318 23.8517V23.8653C45.5182 24.0419 45.4775 24.137 45.2058 24.137H41.8236C41.647 24.137 41.5791 24.0962 41.5791 23.8925L43.2906 7.22583C43.3042 7.14433 43.3313 7.07641 43.3857 7.0085C43.4128 6.98133 43.4672 6.94058 43.603 6.94058H47.7323C47.8817 6.94058 47.9904 6.98134 48.0447 7.19867L51.5492 18.8803L55.0673 7.19867C55.1624 6.95417 55.2982 6.927 55.4204 6.927H59.509C59.5905 6.927 59.6584 6.95417 59.7263 7.0085C59.7943 7.06283 59.8214 7.13075 59.835 7.21225C60.1067 10.0104 60.4055 12.8221 60.6908 15.5524C60.976 18.269 61.2613 21.0672 61.5465 23.8789V23.9197C61.5465 24.0283 61.5465 24.1234 61.2884 24.1234H57.9062V24.137Z" fill="#451E5D"/>
<path d="M73.2551 22.9958C72.7118 23.4984 72.0869 23.8923 71.4078 24.1776C70.7286 24.4628 69.9951 24.5986 69.2345 24.5986C68.3787 24.5986 67.5773 24.4492 66.8166 24.1368C66.056 23.8244 65.3904 23.3897 64.8199 22.8464C64.2494 22.2895 63.7876 21.6511 63.4616 20.904C63.122 20.1569 62.959 19.3419 62.959 18.4726C62.959 17.9293 63.0269 17.3995 63.1627 16.8834C63.2986 16.3672 63.4887 15.8918 63.7332 15.4435C63.9777 14.9953 64.2766 14.5878 64.6297 14.2075C64.9829 13.8271 65.3768 13.5147 65.8115 13.243C66.2461 12.9714 66.7216 12.7676 67.2241 12.6182C67.7403 12.4688 68.27 12.4009 68.8405 12.4009C69.3567 12.4009 69.8593 12.4688 70.3483 12.6046C70.8373 12.7405 71.2855 12.9306 71.7202 13.1887C72.1413 13.4332 72.5352 13.732 72.8884 14.0852C73.2415 14.4384 73.5539 14.8187 73.7984 15.2262C74.0565 15.6337 74.2467 16.0819 74.3961 16.5574C74.5319 17.0328 74.5998 17.5082 74.5998 18.0108C74.5998 18.3368 74.5998 18.5948 74.5863 18.7986C74.5727 19.0023 74.5319 19.1653 74.4368 19.2876C74.3553 19.4098 74.2059 19.4913 74.0022 19.5457C73.7984 19.5864 73.4996 19.6136 73.1057 19.6136H66.382C66.4499 20.0075 66.5721 20.3471 66.7623 20.6188C66.9525 20.8904 67.1698 21.0942 67.4143 21.2572C67.6588 21.4202 67.9305 21.5288 68.2021 21.5968C68.4874 21.6647 68.7455 21.7054 68.99 21.7054C69.2073 21.7054 69.4382 21.6782 69.6827 21.6375C69.9136 21.5967 70.1445 21.5288 70.3755 21.4473C70.5928 21.3658 70.7965 21.2843 70.9867 21.1757C71.1769 21.067 71.3127 20.9719 71.4349 20.8497C71.53 20.7682 71.6251 20.7138 71.693 20.6731C71.7609 20.6323 71.8424 20.6188 71.9239 20.6188C72.0054 20.6188 72.0869 20.6459 72.1684 20.7003C72.2499 20.7546 72.345 20.8361 72.4537 20.9447L73.4453 22.0586C73.5132 22.1401 73.5539 22.208 73.5811 22.2759C73.5947 22.3438 73.6083 22.4117 73.6083 22.4797C73.6083 22.6019 73.5675 22.7106 73.4996 22.8057C73.4317 22.8464 73.3502 22.9279 73.2551 22.9958ZM68.7726 15.2126C68.5281 15.2126 68.2972 15.2669 68.0663 15.362C67.8354 15.4571 67.6316 15.5929 67.4279 15.7559C67.2241 15.9189 67.0476 16.0955 66.8846 16.3129C66.7216 16.5166 66.5993 16.7204 66.4906 16.9377H71.2719C71.1361 16.6932 71.0003 16.4759 70.8509 16.2721C70.7015 16.0684 70.5249 15.8918 70.3347 15.7288C70.1445 15.5794 69.9136 15.4571 69.6691 15.362C69.3975 15.2534 69.0986 15.2126 68.7726 15.2126Z" fill="#451E5D"/>
<path d="M77.2623 10.7032C77.2623 10.513 77.3302 10.3636 77.4524 10.2685C77.5747 10.1734 77.7648 10.0783 77.9958 9.99684L80.1148 9.26334C80.1419 9.26334 80.1691 9.24976 80.2098 9.24976C80.2506 9.24976 80.2642 9.24976 80.2913 9.24976C80.5223 9.24976 80.6717 9.31767 80.7532 9.4535C80.8347 9.58934 80.8754 9.76592 80.8754 9.98326L80.8618 12.9172H82.4103C82.6141 12.9172 82.7771 12.9716 82.8993 13.0938C83.0216 13.2161 83.0895 13.3927 83.0895 13.6236V15.4301C83.0895 15.6882 83.0216 15.8784 82.8993 16.0006C82.7771 16.1229 82.6141 16.1772 82.4103 16.1772H80.8482L80.8618 23.6752C80.8618 23.9061 80.7939 24.0963 80.6581 24.2185C80.5222 24.3408 80.3321 24.3951 80.0876 24.3951H77.9822C77.5068 24.3951 77.2623 24.1506 77.2623 23.6752L77.2487 16.1772H76.5695C76.0941 16.1772 75.8496 15.9191 75.8496 15.4166V13.61C75.8496 13.1346 76.0941 12.9037 76.5695 12.9037H77.2487L77.2623 10.7032Z" fill="#451E5D"/>
<path d="M96.469 23.7159C96.469 23.8245 96.4554 23.9196 96.4147 24.0147C96.3739 24.1098 96.3196 24.1913 96.2245 24.2456C96.1566 24.3135 96.0751 24.3543 95.98 24.3815C95.8849 24.395 95.8034 24.4086 95.7355 24.4086H93.9018C93.7659 24.4086 93.6708 24.395 93.5893 24.3543C93.5078 24.3135 93.4399 24.2728 93.3992 24.2049C93.3448 24.137 93.3041 24.069 93.2769 23.974C93.2362 23.8789 93.209 23.7838 93.1683 23.6751L92.8966 22.9688C92.7336 23.1318 92.5434 23.322 92.3397 23.5121C92.1359 23.7023 91.9186 23.8789 91.6877 24.0419C91.4432 24.2049 91.1851 24.3407 90.9134 24.4494C90.6282 24.558 90.3294 24.6124 90.0169 24.6124C89.4464 24.6124 88.9031 24.5445 88.387 24.395C87.8708 24.2456 87.3818 24.0419 86.9335 23.7838C86.4853 23.5257 86.0778 23.1997 85.711 22.833C85.3443 22.4662 85.0319 22.0451 84.7602 21.5969C84.5021 21.1486 84.2984 20.6461 84.149 20.1299C83.9996 19.6001 83.9316 19.0568 83.9316 18.4863C83.9316 17.617 84.0946 16.8156 84.4071 16.0685C84.7195 15.3214 85.1541 14.683 85.711 14.1261C86.2544 13.5692 86.9064 13.1481 87.6399 12.8221C88.387 12.5097 89.1748 12.3467 90.0169 12.3467C90.3973 12.3467 90.764 12.401 91.0764 12.5233C91.4024 12.6319 91.6877 12.7949 91.9594 12.9715C92.2174 13.1617 92.4619 13.3654 92.6793 13.6099C92.8966 13.8408 93.0868 14.0853 93.2498 14.3298L93.6165 13.2024C93.6844 13.053 93.7252 12.9172 93.7659 12.8221C93.8067 12.727 93.8474 12.6591 93.9018 12.6048C93.9425 12.564 94.0104 12.5233 94.0783 12.5097C94.1463 12.4961 94.2413 12.4825 94.3636 12.4825H95.7491C95.817 12.4825 95.8985 12.4961 95.9936 12.5097C96.0887 12.5233 96.1702 12.5776 96.2381 12.6455C96.3196 12.7134 96.3875 12.7949 96.4282 12.8764C96.469 12.9579 96.4826 13.0666 96.4826 13.1753V23.7159H96.469ZM87.2731 18.4863C87.2731 18.8938 87.341 19.2877 87.4633 19.6409C87.5855 19.9941 87.7757 20.3065 88.0066 20.5646C88.2375 20.8226 88.5228 21.0264 88.8624 21.1894C89.2019 21.3388 89.5687 21.4203 89.9626 21.4203C90.3837 21.4203 90.764 21.3388 91.1308 21.1894C91.4839 21.04 91.7963 20.8362 92.068 20.5646C92.3261 20.3065 92.5434 19.9941 92.6928 19.6409C92.8423 19.2877 92.9102 18.8938 92.9102 18.4863C92.9102 18.0924 92.8423 17.7121 92.6928 17.3453C92.5434 16.9786 92.3397 16.6662 92.068 16.3945C91.8099 16.1228 91.4975 15.9055 91.1308 15.7425C90.7776 15.5795 90.3837 15.498 89.9626 15.498C89.5551 15.498 89.1884 15.5795 88.8624 15.7425C88.5228 15.9055 88.2511 16.1228 88.0066 16.3945C87.7757 16.6662 87.5855 16.9922 87.4633 17.3453C87.341 17.7121 87.2731 18.0924 87.2731 18.4863Z" fill="#451E5D"/>
<path d="M98.7099 9.75247C98.7099 9.54873 98.7642 9.38572 98.8593 9.24989C98.9544 9.11406 99.131 9.04614 99.3755 9.04614H101.657C101.725 9.04614 101.78 9.05973 101.848 9.10048C101.916 9.14123 101.983 9.18198 102.038 9.24989C102.092 9.31781 102.146 9.38572 102.187 9.46722C102.228 9.54872 102.242 9.65739 102.242 9.75247V23.7025C102.242 23.9334 102.174 24.1236 102.038 24.2458C101.902 24.3681 101.725 24.4224 101.522 24.4224H99.3619C99.1174 24.4224 98.9544 24.3681 98.8457 24.2458C98.7506 24.1236 98.6963 23.947 98.6963 23.7025V9.75247H98.7099Z" fill="#451E5D"/>
<path d="M119.981 24.3407C119.18 24.3407 118.406 24.2321 117.658 24.0283C116.925 23.8246 116.219 23.5257 115.58 23.1454C114.942 22.7651 114.344 22.3033 113.814 21.7871C113.285 21.2573 112.836 20.6733 112.456 20.0349C112.076 19.3964 111.79 18.7037 111.573 17.9702C111.369 17.2367 111.261 16.4489 111.261 15.6475C111.261 14.846 111.369 14.0718 111.573 13.3247C111.777 12.5912 112.076 11.8849 112.456 11.2465C112.836 10.5945 113.298 10.0104 113.814 9.48065C114.344 8.95091 114.928 8.48908 115.567 8.12233C116.205 7.742 116.911 7.45675 117.645 7.23942C118.378 7.03567 119.166 6.927 119.954 6.927C120.864 6.927 121.733 7.04925 122.535 7.30733C123.336 7.56541 124.111 7.93216 124.817 8.40757L124.83 8.42116C124.926 8.47549 124.98 8.54341 125.021 8.61132C125.048 8.65207 125.034 8.71999 124.993 8.80149L123.024 11.5996C122.97 11.6947 122.929 11.7219 122.915 11.7219C122.902 11.7219 122.847 11.7219 122.766 11.6676C122.358 11.3687 121.924 11.1378 121.435 10.9612C120.946 10.7982 120.429 10.7167 119.886 10.7167C119.207 10.7167 118.582 10.8526 118.012 11.0971C117.441 11.3551 116.939 11.7083 116.531 12.1566C116.124 12.6048 115.798 13.121 115.567 13.7186C115.336 14.3163 115.213 14.9547 115.213 15.6203C115.213 16.2859 115.336 16.9243 115.567 17.5219C115.798 18.106 116.124 18.6358 116.531 19.0704C116.939 19.5187 117.441 19.8719 118.012 20.1164C118.582 20.3744 119.221 20.4967 119.886 20.4967C120.429 20.4967 120.959 20.4152 121.448 20.2386C121.937 20.0756 122.385 19.8311 122.793 19.5323C122.902 19.4779 122.942 19.4644 122.956 19.4644C122.956 19.4644 122.997 19.4779 123.065 19.573L125.048 22.4391C125.075 22.4798 125.102 22.5749 125.075 22.6157C125.034 22.6836 124.966 22.7515 124.885 22.8058L124.871 22.8194C124.165 23.2948 123.377 23.6752 122.562 23.9332C121.761 24.2049 120.878 24.3407 119.981 24.3407Z" fill="#451E5D"/>
<path d="M127.263 13.2432C127.263 13.1345 127.29 13.0394 127.33 12.9443C127.371 12.8493 127.439 12.7678 127.507 12.7134C127.67 12.6048 127.833 12.5504 128.01 12.5504H129.422C129.545 12.5504 129.64 12.5776 129.707 12.6183C129.775 12.6591 129.83 12.7134 129.884 12.7813C129.925 12.8493 129.966 12.9308 130.006 13.0123C130.047 13.0938 130.088 13.1888 130.129 13.2703C130.142 13.2975 130.169 13.3518 130.197 13.4469C130.237 13.542 130.278 13.6507 130.319 13.7593C130.359 13.868 130.4 13.9767 130.441 14.0853C130.482 14.194 130.509 14.2483 130.522 14.2891C130.713 14.0853 130.889 13.868 131.066 13.6371C131.242 13.4062 131.419 13.2024 131.609 13.0123C131.799 12.8221 132.017 12.6591 132.248 12.5368C132.478 12.4146 132.764 12.3467 133.09 12.3467C133.429 12.3467 133.728 12.3738 133.986 12.4146C134.244 12.4689 134.502 12.5369 134.733 12.6319C134.964 12.727 135.209 12.8493 135.44 12.9987C135.671 13.1481 135.929 13.3247 136.2 13.5148C136.635 13.7458 136.716 14.0853 136.445 14.5472L135.589 16.0006C135.467 16.1907 135.317 16.2994 135.127 16.3402C134.951 16.3809 134.747 16.3537 134.543 16.2587C134.271 16.0006 134 15.7968 133.728 15.6746C133.456 15.5523 133.13 15.4844 132.777 15.4844C132.533 15.4844 132.315 15.5252 132.139 15.5931C131.949 15.661 131.786 15.7561 131.636 15.8783C131.487 16.0006 131.351 16.15 131.215 16.3266C131.079 16.5032 130.957 16.6933 130.821 16.9107V23.6615C130.821 23.8925 130.767 24.0826 130.645 24.2049C130.536 24.3271 130.332 24.3815 130.074 24.3815H127.969C127.48 24.3815 127.235 24.137 127.235 23.6615V13.2432H127.263Z" fill="#451E5D"/>
<path d="M149.308 23.7159C149.308 23.8245 149.294 23.9196 149.254 24.0147C149.213 24.1098 149.158 24.1913 149.063 24.2456C148.995 24.3135 148.914 24.3543 148.819 24.3815C148.724 24.395 148.642 24.4086 148.574 24.4086H146.741C146.605 24.4086 146.51 24.395 146.428 24.3543C146.347 24.3135 146.279 24.2728 146.238 24.2049C146.184 24.137 146.143 24.069 146.116 23.974C146.075 23.8789 146.048 23.7838 146.007 23.6751L145.735 22.9688C145.572 23.1318 145.382 23.322 145.179 23.5121C144.975 23.7023 144.757 23.8789 144.527 24.0419C144.282 24.2049 144.024 24.3407 143.752 24.4494C143.467 24.558 143.168 24.6124 142.856 24.6124C142.285 24.6124 141.742 24.5445 141.226 24.395C140.71 24.2456 140.221 24.0419 139.772 23.7838C139.324 23.5257 138.917 23.1997 138.55 22.833C138.183 22.4662 137.871 22.0451 137.599 21.5969C137.341 21.1486 137.137 20.6461 136.988 20.1299C136.838 19.6001 136.771 19.0568 136.771 18.4863C136.771 17.617 136.934 16.8156 137.246 16.0685C137.558 15.3214 137.993 14.683 138.55 14.1261C139.093 13.5692 139.745 13.1481 140.479 12.8221C141.226 12.5097 142.014 12.3467 142.856 12.3467C143.236 12.3467 143.603 12.401 143.915 12.5233C144.241 12.6319 144.527 12.7949 144.798 12.9715C145.056 13.1617 145.301 13.3654 145.518 13.6099C145.735 13.8408 145.926 14.0853 146.089 14.3298L146.455 13.2024C146.523 13.053 146.564 12.9172 146.605 12.8221C146.646 12.727 146.686 12.6591 146.741 12.6048C146.781 12.564 146.849 12.5233 146.917 12.5097C146.985 12.4961 147.08 12.4825 147.202 12.4825H148.588C148.656 12.4825 148.737 12.4961 148.832 12.5097C148.928 12.5233 149.009 12.5776 149.077 12.6455C149.158 12.7134 149.226 12.7949 149.267 12.8764C149.308 12.9579 149.321 13.0666 149.321 13.1753V23.7159H149.308ZM140.112 18.4863C140.112 18.8938 140.18 19.2877 140.302 19.6409C140.424 19.9941 140.615 20.3065 140.845 20.5646C141.076 20.8226 141.362 21.0264 141.701 21.1894C142.041 21.3388 142.408 21.4203 142.801 21.4203C143.223 21.4203 143.603 21.3388 143.97 21.1894C144.323 21.04 144.635 20.8362 144.907 20.5646C145.165 20.3065 145.382 19.9941 145.532 19.6409C145.681 19.2877 145.749 18.8938 145.749 18.4863C145.749 18.0924 145.681 17.7121 145.532 17.3453C145.382 16.9786 145.179 16.6662 144.907 16.3945C144.649 16.1228 144.336 15.9055 143.97 15.7425C143.616 15.5795 143.223 15.498 142.801 15.498C142.394 15.498 142.027 15.5795 141.701 15.7425C141.362 15.9055 141.09 16.1228 140.845 16.3945C140.615 16.6662 140.424 16.9922 140.302 17.3453C140.166 17.7121 140.112 18.0924 140.112 18.4863Z" fill="#451E5D"/>
<path d="M152.677 12.7272C152.677 12.1431 152.799 11.5998 153.043 11.0972C153.288 10.581 153.627 10.1464 154.049 9.75244C154.47 9.37211 154.945 9.07327 155.488 8.84236C156.032 8.62503 156.602 8.51636 157.186 8.51636H157.376C157.594 8.51636 157.757 8.58428 157.865 8.70653C157.974 8.82878 158.042 9.00536 158.042 9.23628V11.0157C158.042 11.2466 157.988 11.4368 157.865 11.5862C157.743 11.7356 157.58 11.8171 157.39 11.8171H157.2C157.064 11.8171 156.942 11.8443 156.833 11.885C156.711 11.9258 156.616 11.9937 156.521 12.0752C156.426 12.1567 156.358 12.2518 156.303 12.3604C156.249 12.4691 156.222 12.5913 156.222 12.7136V13.7867H157.689C157.906 13.7867 158.069 13.841 158.178 13.9633C158.286 14.0719 158.354 14.2621 158.354 14.5066V16.2181C158.354 16.4897 158.3 16.6799 158.178 16.8021C158.069 16.9244 157.893 16.9923 157.689 16.9923H156.222V23.6889C156.222 23.9198 156.14 24.1099 155.977 24.2322C155.814 24.3544 155.651 24.4088 155.461 24.4088H153.451C153.234 24.4088 153.043 24.3409 152.908 24.205C152.772 24.0692 152.704 23.8926 152.704 23.7025V16.9923H151.739C151.522 16.9923 151.345 16.9244 151.21 16.8021C151.074 16.6799 151.006 16.4762 151.006 16.2181V14.5066C151.006 14.2621 151.074 14.0719 151.21 13.9633C151.345 13.8546 151.522 13.7867 151.739 13.7867H152.704V12.7272H152.677Z" fill="#451E5D"/>
<path d="M160.351 10.7032C160.351 10.513 160.419 10.3636 160.541 10.2685C160.664 10.1734 160.854 10.0783 161.085 9.99684L163.204 9.26334C163.231 9.26334 163.258 9.24976 163.299 9.24976C163.326 9.24976 163.353 9.24976 163.38 9.24976C163.611 9.24976 163.761 9.31767 163.842 9.4535C163.924 9.58934 163.964 9.76592 163.964 9.98326L163.951 12.9172H165.513C165.717 12.9172 165.88 12.9716 166.002 13.0938C166.124 13.2161 166.192 13.3927 166.192 13.6236V15.4301C166.192 15.6882 166.124 15.8784 166.002 16.0006C165.88 16.1229 165.717 16.1772 165.513 16.1772H163.951L163.964 23.6752C163.964 23.9061 163.896 24.0963 163.761 24.2185C163.625 24.3408 163.435 24.3951 163.19 24.3951H161.085C160.609 24.3951 160.365 24.1506 160.365 23.6752L160.351 16.1772H159.672C159.197 16.1772 158.952 15.9191 158.952 15.4166V13.61C158.952 13.1346 159.197 12.9037 159.672 12.9037H160.351V10.7032Z" fill="#451E5D"/>
</svg>
