<svg width="25" height="24" viewBox="0 0 25 24" fill="none" xmlns="http://www.w3.org/2000/svg">
<path d="M20.8125 4H4.8125C3.7125 4 2.8225 4.9 2.8225 6L2.8125 18C2.8125 19.1 3.7125 20 4.8125 20H20.8125C21.9125 20 22.8125 19.1 22.8125 18V6C22.8125 4.9 21.9125 4 20.8125 4ZM20.4125 8.25L13.3425 12.67C13.0225 12.87 12.6025 12.87 12.2825 12.67L5.2125 8.25C5.11223 8.19371 5.02442 8.11766 4.95439 8.02645C4.88436 7.93525 4.83356 7.83078 4.80508 7.71937C4.77659 7.60796 4.771 7.49194 4.78866 7.37831C4.80631 7.26468 4.84684 7.15581 4.90778 7.0583C4.96873 6.96079 5.04882 6.87666 5.14323 6.811C5.23763 6.74533 5.34437 6.69951 5.457 6.6763C5.56962 6.65309 5.68578 6.65297 5.79845 6.67595C5.91113 6.69893 6.01796 6.74453 6.1125 6.81L12.8125 11L19.5125 6.81C19.607 6.74453 19.7139 6.69893 19.8265 6.67595C19.9392 6.65297 20.0554 6.65309 20.168 6.6763C20.2806 6.69951 20.3874 6.74533 20.4818 6.811C20.5762 6.87666 20.6563 6.96079 20.7172 7.0583C20.7782 7.15581 20.8187 7.26468 20.8363 7.37831C20.854 7.49194 20.8484 7.60796 20.8199 7.71937C20.7914 7.83078 20.7406 7.93525 20.6706 8.02645C20.6006 8.11766 20.5128 8.19371 20.4125 8.25Z" fill="white"/>
</svg>
