<svg width="24" height="24" viewBox="0 0 24 24" fill="none" xmlns="http://www.w3.org/2000/svg">
<path d="M12 22.0001C11.687 22.0001 11.385 21.8841 11.15 21.6731C10.3208 20.935 9.48675 20.2023 8.648 19.4751L8.644 19.4711C6.428 17.5411 4.514 15.8751 3.182 14.2331C1.693 12.3971 1 10.6571 1 8.75608C1 6.90908 1.62 5.20508 2.745 3.95708C3.29785 3.33771 3.97604 2.84293 4.73461 2.50554C5.49318 2.16815 6.3148 1.99586 7.145 2.00008C8.415 2.00008 9.579 2.41008 10.602 3.22008C11.1368 3.64736 11.6076 4.14913 12 4.71007C12.3924 4.14911 12.8631 3.64734 13.398 3.22008C14.421 2.41008 15.584 2.00008 16.854 2.00008C18.554 2.00008 20.116 2.69508 21.254 3.95708C22.38 5.20508 23 6.91008 23 8.75608C23 10.6571 22.307 12.3971 20.818 14.2331C19.487 15.8751 17.573 17.5411 15.357 19.4711C14.599 20.1311 13.741 20.8781 12.85 21.6741C12.615 21.8841 12.313 22.0001 12 22.0001ZM7.146 3.31708C6.49468 3.31334 5.85 3.44808 5.2547 3.71237C4.6594 3.97666 4.12707 4.36447 3.693 4.85008C2.787 5.85308 2.289 7.24008 2.289 8.75608C2.289 10.3551 2.87 11.7851 4.174 13.3931C5.434 14.9471 7.309 16.5791 9.48 18.4691L9.484 18.4731C10.243 19.1331 11.103 19.8831 11.998 20.6831C12.8345 19.94 13.6755 19.202 14.521 18.4691C16.691 16.5791 18.566 14.9471 19.826 13.3931C21.13 11.7851 21.711 10.3551 21.711 8.75608C21.711 7.24108 21.213 5.85308 20.307 4.85008C19.8729 4.36447 19.3406 3.97666 18.7453 3.71237C18.15 3.44808 17.5053 3.31334 16.854 3.31708C15.876 3.31708 14.979 3.63408 14.186 4.26108C13.479 4.81908 12.987 5.52507 12.699 6.01907C12.6288 6.14258 12.5271 6.24529 12.4044 6.31673C12.2816 6.38818 12.1421 6.42582 12 6.42582C11.8579 6.42582 11.7184 6.38818 11.5956 6.31673C11.4729 6.24529 11.3712 6.14258 11.301 6.01907C11.013 5.52507 10.521 4.81908 9.814 4.26108C9.021 3.63408 8.124 3.31708 7.146 3.31708Z" fill="#C27AC0"/>
</svg>
