<svg width="21" height="21" viewBox="0 0 21 21" fill="none" xmlns="http://www.w3.org/2000/svg">
<path d="M0.359404 20.049C0.524509 20.1428 0.720013 20.1675 0.903242 20.1177C1.08647 20.0678 1.24255 19.9475 1.3374 19.783C1.7974 18.978 2.3364 18.043 2.9474 17.037C4.48305 17.3291 6.04136 17.4857 7.6044 17.505C10.3644 17.505 12.5494 16.908 14.2244 15.722C17.4584 13.415 18.0544 9.33205 18.5364 6.04805C18.8314 4.02805 19.1044 2.12305 19.9244 1.30405C20.0206 1.20775 20.0874 1.08612 20.117 0.953326C20.1467 0.820527 20.1381 0.682028 20.092 0.553965C20.046 0.425903 19.9646 0.31355 19.8572 0.229998C19.7498 0.146447 19.6208 0.0951362 19.4854 0.0820452C19.0474 0.0170452 9.0204 -0.822954 4.0894 4.73205C1.6674 7.47105 0.927403 11.259 1.8974 16.002C1.1784 17.124 0.603404 18.159 0.093404 19.072C-7.16895e-05 19.2371 -0.0245665 19.4323 0.0252545 19.6153C0.0750755 19.7983 0.195177 19.9542 0.359404 20.049ZM5.1604 5.67405C8.6254 1.75005 15.3454 1.45505 18.1054 1.45505C17.5769 2.86483 17.2408 4.33945 17.1064 5.83905C16.6464 9.00905 16.1214 12.596 13.3904 14.551C11.2844 16.046 8.1224 16.426 3.7734 15.715C6.2754 11.791 9.7394 7.32705 13.9084 5.76705C14.0751 5.69216 14.207 5.55664 14.2773 5.38801C14.3477 5.21939 14.3512 5.0303 14.2871 4.85918C14.2231 4.68806 14.0963 4.54774 13.9325 4.46674C13.7687 4.38573 13.5803 4.37011 13.4054 4.42305C9.0924 6.02605 5.6284 10.274 3.0554 14.177C2.6164 10.627 3.3204 7.78005 5.1684 5.68805L5.1604 5.67405Z" fill="#C27AC0"/>
</svg>
