<svg width="22" height="22" viewBox="0 0 22 22" fill="none" xmlns="http://www.w3.org/2000/svg">
<path d="M11.0025 22.0025C10.8187 22.0027 10.6398 21.9429 10.4929 21.8323C10.346 21.7217 10.2392 21.5663 10.1885 21.3895L9.31052 18.3125C8.93277 16.9738 8.21792 15.7543 7.23432 14.7707C6.25073 13.7871 5.03126 13.0723 3.69252 12.6945L0.615522 11.8165C0.4383 11.7663 0.282296 11.6597 0.171204 11.5128C0.060111 11.3659 0 11.1867 0 11.0025C0 10.8183 0.060111 10.6392 0.171204 10.4923C0.282296 10.3453 0.4383 10.2387 0.615522 10.1885L3.69252 9.31052C5.03126 8.93277 6.25073 8.21792 7.23432 7.23432C8.21792 6.25073 8.93277 5.03126 9.31052 3.69252L10.1885 0.615522C10.2387 0.4383 10.3453 0.282296 10.4923 0.171204C10.6392 0.060111 10.8183 0 11.0025 0C11.1867 0 11.3659 0.060111 11.5128 0.171204C11.6597 0.282296 11.7663 0.4383 11.8165 0.615522L12.6945 3.69252C13.0723 5.03126 13.7871 6.25073 14.7707 7.23432C15.7543 8.21792 16.9738 8.93277 18.3125 9.31052L21.3895 10.1885C21.5667 10.2387 21.7227 10.3453 21.8338 10.4923C21.9449 10.6392 22.005 10.8183 22.005 11.0025C22.005 11.1867 21.9449 11.3659 21.8338 11.5128C21.7227 11.6597 21.5667 11.7663 21.3895 11.8165L18.3125 12.6945C16.9738 13.0723 15.7543 13.7871 14.7707 14.7707C13.7871 15.7543 13.0723 16.9738 12.6945 18.3125L11.8165 21.3895C11.7659 21.5663 11.659 21.7217 11.5122 21.8323C11.3653 21.9429 11.1864 22.0027 11.0025 22.0025ZM3.92852 11.0025L4.15352 11.0675C5.76907 11.5236 7.24067 12.3864 8.42768 13.5734C9.61469 14.7604 10.4775 16.232 10.9335 17.8475L10.9995 18.0735L11.0645 17.8475C11.5206 16.232 12.3834 14.7604 13.5704 13.5734C14.7574 12.3864 16.229 11.5236 17.8445 11.0675L18.0705 11.0025L17.8445 10.9375C16.229 10.4814 14.7575 9.61858 13.5705 8.43158C12.3835 7.24458 11.5207 5.77303 11.0645 4.15752L11.0025 3.92952L10.9375 4.15552C10.4815 5.77107 9.61869 7.24267 8.43168 8.42968C7.24467 9.6167 5.77307 10.4795 4.15752 10.9355L3.92752 11.0025H3.92852Z" fill="#C27AC0"/>
</svg>
